<svg width="3539" height="2880" fill="none" xmlns="http://www.w3.org/2000/svg"><g clip-path="url(#clip0_1_72)"><g clip-path="url(#clip1_1_72)"><rect width="848.535" height="79.254" rx="39.627" transform="matrix(-.50893 -.8608 .85845 -.5129 1410.85 1056.08)" fill="#ED5353"/><rect width="849.197" height="79.192" rx="39.596" transform="rotate(-104.477 1138.582 -128.146) skewX(.162)" fill="#ED5353"/><rect width="849.467" height="79.167" rx="39.583" transform="rotate(-91.407 1318.48 -396.121) skewX(.059)" fill="#ED5353"/><rect width="849.491" height="79.165" rx="39.582" transform="rotate(-82.569 1491.722 -672.865) skewX(-.038)" fill="#ED5353"/><rect width="848.95" height="79.215" rx="39.608" transform="matrix(.33548 -.94205 .9408 .33895 2197 941.75)" fill="#ED5353"/><rect width="847.361" height="79.365" rx="39.682" transform="matrix(.65957 -.75164 .74784 .66388 2360.27 1032.75)" fill="#ED5353"/><rect width="845.744" height="79.516" rx="39.758" transform="matrix(.87466 -.48473 .48044 .87703 2496.61 1185.33)" fill="#ED5353"/><rect width="844.864" height="79.598" rx="39.799" transform="rotate(-13.526 7155.628 -10077.822) skewX(-.15)" fill="#ED5353"/><rect width="844.598" height="79.623" rx="39.812" transform="rotate(-.314 291428.194 -475444.283) skewX(-.004)" fill="#ED5353"/><rect width="844.812" height="79.603" rx="39.801" transform="rotate(12.104 -7154.325 12924.09) skewX(.135)" fill="#ED5353"/><ellipse cx="751.014" cy="752.339" rx="751.014" ry="752.339" transform="matrix(.80583 .59214 -.58769 .80909 1708.28 520.65)" fill="#ED5353"/><ellipse cx="681.323" cy="685.026" rx="681.323" ry="685.026" transform="matrix(.80583 .59214 -.58769 .80909 1718.54 631.117)" fill="#fff"/><path d="M967.157 947.658L2957.07 2413.11l186.21 149.11-211.39-114.93L941.986 981.837 777.159 845.459l189.998 102.199z" fill="#ED5353"/></g><g clip-path="url(#clip2_1_72)" fill="#3A94E8"><rect width="1068.23" height="110.827" rx="55.413" transform="matrix(-.99674 -.08062 -.08699 .9962 1438.87 1083.07)"/><rect width="1068.4" height="110.807" rx="55.403" transform="matrix(-.99914 -.0415 -.04356 .99905 1860.03 1269.51)"/><rect width="1322.36" height="90.783" rx="45.392" transform="matrix(-.99446 .10511 .1191 .99288 1531.16 1415.88)"/><rect width="572.365" height="94.681" rx="47.34" transform="matrix(-.47462 .8802 .89903 .4379 565.668 1536.7)"/><rect width="586.139" height="92.496" rx="46.248" transform="matrix(-.79963 -.60049 -.64017 .76823 661.332 1534.36)"/><rect width="1255.88" height="95.581" rx="47.791" transform="matrix(.03405 .99942 .9996 -.02836 1567.92 1482.35)"/><rect width="587.007" height="92.354" rx="46.177" transform="matrix(.817 .57664 .61648 -.78737 1585.97 2388.15)"/><rect width="587.143" height="92.332" rx="46.166" transform="matrix(-.84518 .53448 .57564 .8177 1632.53 2317.3)"/><rect width="566.469" height="95.585" rx="47.793" transform="matrix(.01273 .99992 .99996 -.00916 1197.07 1780.29)"/><path d="M1266.93 1831.83c-6.9-24.19-32.26-38.76-56.64-32.54l-487.961 124.43c-24.374 6.22-38.532 30.86-31.623 55.05 6.909 24.18 32.269 38.75 56.643 32.54l487.961-124.43c24.38-6.22 38.53-30.87 31.62-55.05z"/><rect width="710.479" height="95.561" rx="47.781" transform="matrix(.0602 .99819 .99865 -.05192 951.248 2063.8)"/><rect width="735.243" height="91.071" rx="45.536" transform="matrix(-.97057 .24084 .2679 .96345 990.557 2072.33)"/><rect width="1505.78" height="114.644" rx="57.322" transform="matrix(-.64219 .76655 .7981 .60253 1514.8 1419.19)"/><rect width="1018.55" height="116.281" rx="58.141" transform="matrix(.289 .95733 .96552 -.26032 1722.57 1290.01)"/><rect width="1019.41" height="116.192" rx="58.096" transform="matrix(.31475 .94917 .95877 -.2842 2046.52 1721.5)"/><path d="M540.035 764.729a247.643 247.643 0 0028.235 23.768l1969.6 1422.153 197.7 130.39-157.26-152.44a246.366 246.366 0 00-27.4-22.96L580.83 743.148l-179.387-114.05 138.592 135.631z"/></g></g><defs><clipPath id="clip0_1_72"><path fill="#fff" d="M0 0h3539v2880H0z"/></clipPath><clipPath id="clip1_1_72"><path fill="#fff" transform="rotate(36.151 1927.868 2141.321)" d="M0 0h3173.19v1785.88H0z"/></clipPath><clipPath id="clip2_1_72"><path fill="#fff" transform="scale(1 -1) rotate(-36.151 -3018.185 -140.88)" d="M0 0h3046.75v1493.78H0z"/></clipPath></defs></svg>