<svg width="3539" height="2880" viewBox="0 0 3539 2880" fill="none" xmlns="http://www.w3.org/2000/svg">
<g clip-path="url(#clip0_1_72)">
<g clip-path="url(#clip1_1_72)">
<rect width="848.535" height="79.2544" rx="39.6272" transform="matrix(-0.508931 -0.860808 0.858447 -0.512903 1410.85 1056.08)" fill="#ED5353"/>
<rect width="849.197" height="79.1921" rx="39.5961" transform="matrix(-0.249996 -0.968247 0.967538 -0.252725 1547.3 942.246)" fill="#ED5353"/>
<rect width="849.467" height="79.1667" rx="39.5834" transform="matrix(-0.0245496 -0.999699 0.999673 -0.0255857 1746.85 912.237)" fill="#ED5353"/>
<rect width="849.491" height="79.1645" rx="39.5822" transform="matrix(0.129338 -0.991601 0.991516 0.129988 1966 893.355)" fill="#ED5353"/>
<rect width="848.95" height="79.2154" rx="39.6077" transform="matrix(0.335485 -0.942046 0.940805 0.338948 2197 941.75)" fill="#ED5353"/>
<rect width="847.361" height="79.3648" rx="39.6824" transform="matrix(0.659571 -0.751642 0.747838 0.663882 2360.27 1032.75)" fill="#ED5353"/>
<rect width="845.744" height="79.5161" rx="39.7581" transform="matrix(0.874664 -0.48473 0.48044 0.877028 2496.61 1185.33)" fill="#ED5353"/>
<rect width="844.864" height="79.5982" rx="39.7991" transform="matrix(0.972264 -0.233887 0.231337 0.972874 2555.54 1394.09)" fill="#ED5353"/>
<rect width="844.598" height="79.623" rx="39.8115" transform="matrix(0.999985 -0.0054269 0.00536434 0.999986 2584.56 1574.42)" fill="#ED5353"/>
<rect width="844.812" height="79.6031" rx="39.8015" transform="matrix(0.977769 0.209685 -0.207373 0.978262 2550.94 1787.47)" fill="#ED5353"/>
<ellipse cx="751.014" cy="752.339" rx="751.014" ry="752.339" transform="matrix(0.805832 0.592144 -0.587687 0.809088 1708.28 520.65)" fill="#ED5353"/>
<ellipse cx="681.323" cy="685.026" rx="681.323" ry="685.026" transform="matrix(0.805832 0.592144 -0.587687 0.809088 1718.54 631.117)" fill="white"/>
<path d="M967.157 947.658L2957.07 2413.11L3143.28 2562.22L2931.89 2447.29L941.986 981.837L777.159 845.459L967.157 947.658Z" fill="#ED5353"/>
</g>
<g clip-path="url(#clip2_1_72)">
<rect width="1068.23" height="110.827" rx="55.4135" transform="matrix(-0.996745 -0.0806213 -0.0869873 0.996209 1438.87 1083.07)" fill="#3A94E8"/>
<rect width="1068.4" height="110.807" rx="55.4033" transform="matrix(-0.999138 -0.0415066 -0.0435568 0.999051 1860.03 1269.51)" fill="#3A94E8"/>
<rect width="1322.36" height="90.7832" rx="45.3916" transform="matrix(-0.99446 0.105111 0.119094 0.992883 1531.16 1415.88)" fill="#3A94E8"/>
<rect width="572.365" height="94.6807" rx="47.3404" transform="matrix(-0.474619 0.880191 0.899027 0.437893 565.668 1536.7)" fill="#3A94E8"/>
<rect width="586.139" height="92.4955" rx="46.2478" transform="matrix(-0.799635 -0.600486 -0.64017 0.768233 661.332 1534.36)" fill="#3A94E8"/>
<rect width="1255.88" height="95.5813" rx="47.7906" transform="matrix(0.0340519 0.99942 0.999598 -0.0283582 1567.92 1482.35)" fill="#3A94E8"/>
<rect width="587.007" height="92.3543" rx="46.1771" transform="matrix(0.816997 0.576642 0.616481 -0.78737 1585.97 2388.15)" fill="#3A94E8"/>
<rect width="587.143" height="92.3322" rx="46.1661" transform="matrix(-0.845179 0.534483 0.575636 0.817706 1632.53 2317.3)" fill="#3A94E8"/>
<rect width="566.469" height="95.5854" rx="47.7927" transform="matrix(0.0127281 0.999919 0.999958 -0.00915593 1197.07 1780.29)" fill="#3A94E8"/>
<path d="M1266.93 1831.83C1260.03 1807.64 1234.67 1793.07 1210.29 1799.29L722.329 1923.72C697.955 1929.94 683.797 1954.58 690.706 1978.77V1978.77C697.615 2002.95 722.975 2017.52 747.349 2011.31L1235.31 1886.88C1259.69 1880.66 1273.84 1856.01 1266.93 1831.83V1831.83Z" fill="#3A94E8"/>
<rect width="710.479" height="95.5611" rx="47.7806" transform="matrix(0.0601957 0.998187 0.998651 -0.0519182 951.248 2063.8)" fill="#3A94E8"/>
<rect width="735.243" height="91.0712" rx="45.5356" transform="matrix(-0.970565 0.24084 0.267891 0.963449 990.557 2072.33)" fill="#3A94E8"/>
<rect width="1505.78" height="114.644" rx="57.3221" transform="matrix(-0.642189 0.766546 0.798097 0.602529 1514.8 1419.19)" fill="#3A94E8"/>
<rect width="1018.55" height="116.281" rx="58.1405" transform="matrix(0.288998 0.95733 0.965521 -0.260324 1722.57 1290.01)" fill="#3A94E8"/>
<rect width="1019.41" height="116.192" rx="58.0959" transform="matrix(0.31475 0.949175 0.958767 -0.284193 2046.52 1721.5)" fill="#3A94E8"/>
<path d="M540.035 764.729C548.808 773.314 558.245 781.258 568.27 788.497L2537.87 2210.65L2735.57 2341.04L2578.31 2188.6C2569.78 2180.32 2560.62 2172.65 2550.91 2165.64L580.83 743.148L401.443 629.098L540.035 764.729Z" fill="#3A94E8"/>
</g>
</g>
<defs>
<clipPath id="clip0_1_72">
<rect width="3539" height="2880" fill="white"/>
</clipPath>
<clipPath id="clip1_1_72">
<rect width="3173.19" height="1785.88" fill="white" transform="translate(1634.38 -725) rotate(36.151)"/>
</clipPath>
<clipPath id="clip2_1_72">
<rect width="3046.75" height="1493.78" fill="white" transform="matrix(0.807465 0.589916 0.589916 -0.807465 -498 1807.6)"/>
</clipPath>
</defs>
</svg>
