<svg width="9192" height="3241" fill="none" xmlns="http://www.w3.org/2000/svg"><g clip-path="url(#clip0_1_75)"><path d="M3371.2 573h325.5l210 659.4c18.2 57.4 35 114.8 50.4 172.2 16.8 56 31.5 111.3 44.1 165.9h8.4c5.6-23.8 11.9-49.7 18.9-77.7l25.2-88.2c8.4-30.8 16.1-60.9 23.1-90.3 8.4-29.4 16.8-56.7 25.2-81.9L4305.7 573h325.5l105 1323h-245.7c-11.2-144.2-21.7-287.7-31.5-430.5-8.4-144.2-14-288.4-16.8-432.6l-6.3-207.9h-6.3c-21 82.6-43.4 167.3-67.2 254.1-23.8 86.8-47.6 165.9-71.4 237.3L4106.2 1896h-207.9l-189-579.6c-32.2-98-59.5-187.6-81.9-268.8-21-82.6-39.2-156.8-54.6-222.6h-4.2c-2.8 109.2-7.7 223.3-14.7 342.3-5.6 119-11.9 228.9-18.9 329.7l-23.1 399h-241.5l100.8-1323zm2100.36 0c135.8 0 242.9 30.1 321.3 90.3 79.8 58.8 119.7 142.8 119.7 252 0 40.6-7 77-21 109.2-12.6 30.8-30.1 58.1-52.5 81.9-22.4 22.4-48.3 41.3-77.7 56.7-29.4 15.4-59.5 27.3-90.3 35.7 37.8 7 73.5 18.9 107.1 35.7 35 16.8 65.1 39.2 90.3 67.2 26.6 26.6 46.9 58.8 60.9 96.6 15.4 36.4 23.1 78.4 23.1 126 0 54.6-11.9 105-35.7 151.2-23.8 44.8-57.4 84-100.8 117.6-43.4 32.2-95.9 57.4-157.5 75.6-60.2 18.2-126.7 27.3-199.5 27.3h-434.7V573h447.3zm-191.1 537.6h142.8c64.4 0 118.3-13.3 161.7-39.9 43.4-28 65.1-73.5 65.1-136.5 0-54.6-19.6-95.2-58.8-121.8-37.8-28-91-42-159.6-42h-151.2v340.2zm0 588h144.9c36.4 0 70.7-3.5 102.9-10.5s60.2-18.2 84-33.6c23.8-15.4 42-35.7 54.6-60.9 14-26.6 21-58.1 21-94.5 0-35-7.7-64.4-23.1-88.2-15.4-25.2-35.7-45.5-60.9-60.9-25.2-15.4-54.6-26.6-88.2-33.6s-68.6-10.5-105-10.5h-130.2v392.7zM6279.21 573h325.5l210 659.4c18.2 57.4 35 114.8 50.4 172.2 16.8 56 31.5 111.3 44.1 165.9h8.4c5.6-23.8 11.9-49.7 18.9-77.7l25.2-88.2c8.4-30.8 16.1-60.9 23.1-90.3 8.4-29.4 16.8-56.7 25.2-81.9l203.7-659.4h325.5l105 1323h-245.7c-11.2-144.2-21.7-287.7-31.5-430.5-8.4-144.2-14-288.4-16.8-432.6l-6.3-207.9h-6.3c-21 82.6-43.4 167.3-67.2 254.1-23.8 86.8-47.6 165.9-71.4 237.3l-184.8 579.6h-207.9l-189-579.6c-32.2-98-59.5-187.6-81.9-268.8-21-82.6-39.2-156.8-54.6-222.6h-4.2c-2.8 109.2-7.7 223.3-14.7 342.3-5.6 119-11.9 228.9-18.9 329.7l-23.1 399h-241.5l100.8-1323z" fill="#3A94E8"/><path d="M3554.6 2589.35c20.55 0 37.97-1.79 52.26-5.36 14.29-3.57 26.58-8.49 36.85-14.74l18.76 67c-10.72 6.25-25.91 11.84-45.56 16.75-19.65 4.91-43.55 7.37-71.69 7.37-31.71 0-60.97-4.91-87.77-14.74-26.8-10.27-50.03-24.79-69.68-43.55-19.21-19.21-34.17-42.21-44.89-69.01-10.72-27.25-16.08-57.84-16.08-91.79 0-33.05 5.14-62.98 15.41-89.78 10.72-26.8 25.46-49.58 44.22-68.34 19.21-19.21 42.43-33.95 69.68-44.22 27.25-10.27 57.62-15.41 91.12-15.41 28.59 0 52.04 2.68 70.35 8.04 18.76 5.36 33.95 11.17 45.56 17.42l-20.77 67.67c-11.61-6.25-24.57-11.39-38.86-15.41-13.85-4.47-29.48-6.7-46.9-6.7-18.31 0-35.51 2.68-51.59 8.04-16.08 5.36-30.15 14.07-42.21 26.13-12.06 11.61-21.66 26.8-28.81 45.56-6.7 18.31-10.05 40.65-10.05 67 0 25.46 3.35 47.57 10.05 66.33 6.7 18.31 15.86 33.5 27.47 45.56 12.06 12.06 25.91 21.22 41.54 27.47 16.08 5.81 33.28 8.71 51.59 8.71zm160.34-358.45h91.79v349.74h170.18V2653h-261.97v-422.1zm391.8 0V2653h-91.79v-422.1h91.79zm106.77 0h115.91l60.3 192.29c2.68 8.49 5.36 17.64 8.04 27.47 3.13 9.83 6.03 19.65 8.71 29.48 2.68 9.83 5.14 19.43 7.37 28.81 2.24 9.38 4.02 18.09 5.36 26.13h2.68c1.34-7.15 3.13-15.41 5.36-24.79 2.24-9.83 4.69-19.88 7.37-30.15 2.68-10.27 5.36-20.32 8.04-30.15 2.68-9.83 5.14-18.76 7.37-26.8l58.29-192.29h115.91l31.49 422.1h-86.43l-8.04-139.36c-2.68-46.45-4.46-93.35-5.36-140.7l-.67-54.94h-2.01c-5.8 24.57-12.28 50.25-19.43 77.05-6.7 26.8-13.17 50.25-19.43 70.35l-59.63 187.6h-71.02l-60.97-188.27c-7.59-24.12-14.74-49.58-21.44-76.38-6.7-26.8-12.06-50.25-16.08-70.35h-2.01c0 16.08-.22 33.05-.67 50.92-.44 17.42-1.11 34.84-2.01 52.26-.44 17.42-1.11 34.62-2.01 51.59-.44 16.53-1.11 31.71-2.01 45.56l-8.04 134.67h-85.09l30.15-422.1zm629.14 257.28h107.2l-19.43-56.28a1198.16 1198.16 0 01-17.42-52.26c-5.36-17.87-10.5-35.73-15.41-53.6h-1.34c-4.91 16.97-10.27 34.39-16.08 52.26a8062.05 8062.05 0 01-18.09 53.6l-19.43 56.28zm8.04-257.28h95.14l156.11 422.1h-97.15l-32.83-97.15h-150.08l-32.83 97.15h-95.81l157.45-422.1zm541.47 0v72.36H5272.9V2653h-91.79v-349.74h-116.58v-72.36h327.63zm130.53 0V2653h-91.79v-422.1h91.79zm368.07 0v52.26l-204.35 300.16h210.38V2653h-323.61v-58.29l200.33-294.13h-192.96v-69.68h310.21zm168.93 257.28h107.2l-19.43-56.28a1198.16 1198.16 0 01-17.42-52.26 2451.91 2451.91 0 01-15.41-53.6h-1.34c-4.91 16.97-10.27 34.39-16.08 52.26-5.8 17.42-11.83 35.29-18.09 53.6l-19.43 56.28zm8.04-257.28h95.14l156.11 422.1h-97.15l-32.83-97.15h-150.08l-32.83 97.15h-95.81l157.45-422.1zm486.61 358.45c20.55 0 37.97-1.79 52.26-5.36 14.3-3.57 26.58-8.49 36.85-14.74l18.76 67c-10.27 5.81-24.56 11.17-42.88 16.08-17.86 4.47-40.2 7.15-67 8.04l-8.71 24.12c17.42 1.34 30.82 6.92 40.2 16.75 9.83 9.83 14.74 21.22 14.74 34.17 0 20.55-7.59 35.96-22.78 46.23-15.18 10.27-34.17 15.41-56.95 15.41-11.16 0-21.66-1.12-31.49-3.35-9.38-1.79-16.97-3.8-22.78-6.03l10.72-36.85c5.36 2.23 10.5 3.8 15.41 4.69 5.36.89 11.62 1.34 18.76 1.34 9.83 0 17.42-2.01 22.78-6.03 5.81-4.02 8.71-10.27 8.71-18.76 0-7.59-3.57-14.07-10.72-19.43-7.14-4.91-21.21-7.37-42.21-7.37l18.09-48.24c-26.8-3.57-51.36-11.17-73.7-22.78-21.88-11.61-40.64-26.58-56.28-44.89-15.63-18.31-27.91-39.98-36.85-64.99-8.48-25.01-12.73-52.71-12.73-83.08 0-33.05 5.14-62.98 15.41-89.78 10.72-26.8 25.46-49.58 44.22-68.34 19.21-19.21 42.44-33.95 69.68-44.22 27.25-10.27 57.62-15.41 91.12-15.41 28.59 0 52.04 2.68 70.35 8.04 18.76 5.36 33.95 11.17 45.56 17.42l-20.77 67.67c-11.61-6.25-24.56-11.39-38.86-15.41-13.84-4.47-29.48-6.7-46.9-6.7-18.31 0-35.51 2.68-51.59 8.04-16.08 5.36-30.15 14.07-42.21 26.13-12.06 11.61-21.66 26.8-28.81 45.56-6.7 18.31-10.05 40.65-10.05 67 0 25.46 3.35 47.57 10.05 66.33 6.7 18.31 15.86 33.5 27.47 45.56 12.06 12.06 25.91 21.22 41.54 27.47 16.08 5.81 33.28 8.71 51.59 8.71zm223.32-402c0-21.89 5.14-40.42 15.41-55.61 10.27-15.63 25.24-23.45 44.89-23.45 8.49 0 16.08 1.34 22.78 4.02 6.7 2.23 12.95 4.91 18.76 8.04 6.25 3.13 12.06 6.03 17.42 8.71a50.066 50.066 0 0018.09 3.35c7.15 0 12.28-2.46 15.41-7.37 3.57-4.91 5.81-11.17 6.7-18.76h43.55c0 22.78-5.14 41.54-15.41 56.28-10.27 14.74-24.57 22.11-42.88 22.11-8.93 0-17.2-1.12-24.79-3.35-7.59-2.68-14.74-5.36-21.44-8.04-6.7-3.13-12.95-5.81-18.76-8.04-5.36-2.68-10.5-4.02-15.41-4.02-7.59 0-12.95 2.68-16.08 8.04-2.68 4.91-4.24 10.94-4.69 18.09h-43.55zm48.24 300.83h107.2l-19.43-56.28a1198.16 1198.16 0 01-17.42-52.26c-5.36-17.87-10.5-35.73-15.41-53.6h-1.34c-4.91 16.97-10.27 34.39-16.08 52.26a8062.05 8062.05 0 01-18.09 53.6l-19.43 56.28zm8.04-257.28h95.14l156.11 422.1h-97.15l-32.83-97.15h-150.08L6772.3 2653h-95.81l157.45-422.1zm472.46-7.37c29.93 0 57.62 4.91 83.08 14.74s47.35 24.12 65.66 42.88c18.31 18.31 32.61 41.09 42.88 68.34 10.72 27.25 16.08 58.29 16.08 93.13 0 33.95-5.36 64.32-16.08 91.12-10.72 26.8-25.46 49.58-44.22 68.34-18.76 18.76-41.09 33.28-67 43.55-25.46 9.83-53.15 14.74-83.08 14.74s-57.62-4.69-83.08-14.07c-25.46-9.83-47.35-23.9-65.66-42.21-18.31-18.76-32.83-41.54-43.55-68.34-10.27-27.25-15.41-58.29-15.41-93.13 0-33.95 5.36-64.32 16.08-91.12 10.72-27.25 25.46-50.25 44.22-69.01 18.76-19.21 40.87-33.72 66.33-43.55 25.91-10.27 53.82-15.41 83.75-15.41zm-113.23 219.09c0 25.01 2.9 46.9 8.71 65.66 6.25 18.31 14.52 33.72 24.79 46.23 10.27 12.06 22.11 21.22 35.51 27.47 13.85 5.81 28.59 8.71 44.22 8.71 15.19 0 29.48-2.9 42.88-8.71 13.85-6.25 25.68-15.41 35.51-27.47 9.83-12.51 17.64-27.92 23.45-46.23 5.81-18.76 8.71-40.65 8.71-65.66 0-25.91-3.13-48.24-9.38-67-5.81-18.76-13.85-34.17-24.12-46.23-10.27-12.51-22.33-21.66-36.18-27.47-13.4-5.81-27.92-8.71-43.55-8.71-15.63 0-30.15 3.13-43.55 9.38-13.4 6.25-25.01 15.63-34.84 28.14-9.83 12.06-17.64 27.47-23.45 46.23-5.81 18.76-8.71 40.65-8.71 65.66z" fill="#131313"/><g clip-path="url(#clip1_1_75)"><g clip-path="url(#clip2_1_75)"><rect width="848.535" height="79.254" rx="39.627" transform="matrix(-.50893 -.8608 .85845 -.5129 1376.85 1417.08)" fill="#ED5353"/><rect width="849.197" height="79.192" rx="39.596" transform="rotate(-104.477 1261.399 65.524) skewX(.162)" fill="#ED5353"/><rect width="849.467" height="79.167" rx="39.583" transform="rotate(-91.407 1477.603 -199.032) skewX(.059)" fill="#ED5353"/><rect width="849.491" height="79.165" rx="39.582" transform="rotate(-82.569 1680.297 -473.002) skewX(-.038)" fill="#ED5353"/><rect width="848.95" height="79.215" rx="39.608" transform="matrix(.33548 -.94205 .9408 .33895 2163 1302.75)" fill="#ED5353"/><rect width="847.361" height="79.365" rx="39.682" transform="matrix(.65957 -.75164 .74784 .66388 2326.27 1393.75)" fill="#ED5353"/><rect width="845.744" height="79.516" rx="39.758" transform="matrix(.87466 -.48473 .48044 .87703 2462.61 1546.33)" fill="#ED5353"/><rect width="844.864" height="79.598" rx="39.799" transform="rotate(-13.526 8660.704 -9753.97) skewX(-.15)" fill="#ED5353"/><rect width="844.598" height="79.623" rx="39.812" transform="rotate(-.314 357930.85 -468995.382) skewX(-.004)" fill="#ED5353"/><rect width="844.812" height="79.603" rx="39.801" transform="rotate(12.104 -8852.088 12768.204) skewX(.135)" fill="#ED5353"/><ellipse cx="751.014" cy="752.339" rx="751.014" ry="752.339" transform="matrix(.80583 .59214 -.58769 .80909 1674.28 881.65)" fill="#ED5353"/><ellipse cx="681.323" cy="685.026" rx="681.323" ry="685.026" transform="matrix(.80583 .59214 -.58769 .80909 1684.54 992.117)" fill="#fff"/><path d="M933.157 1308.66L2923.07 2774.11l186.21 149.11-211.39-114.93L907.986 1342.84l-164.827-136.38 189.998 102.2z" fill="#ED5353"/></g><g clip-path="url(#clip3_1_75)" fill="#3A94E8"><rect width="1068.23" height="110.827" rx="55.413" transform="matrix(-.99674 -.08062 -.08699 .9962 1404.87 1444.07)"/><rect width="1068.4" height="110.807" rx="55.403" transform="matrix(-.99914 -.0415 -.04356 .99905 1826.03 1630.51)"/><rect width="1322.36" height="90.783" rx="45.392" transform="matrix(-.99446 .10511 .1191 .99288 1497.16 1776.88)"/><rect width="572.365" height="94.681" rx="47.34" transform="matrix(-.47462 .8802 .89903 .4379 531.668 1897.7)"/><rect width="586.139" height="92.496" rx="46.248" transform="matrix(-.79963 -.60049 -.64017 .76823 627.332 1895.36)"/><rect width="1255.88" height="95.581" rx="47.791" transform="matrix(.03405 .99942 .9996 -.02836 1533.92 1843.35)"/><rect width="587.007" height="92.354" rx="46.177" transform="matrix(.817 .57664 .61648 -.78737 1551.97 2749.15)"/><rect width="587.143" height="92.332" rx="46.166" transform="matrix(-.84518 .53448 .57564 .8177 1598.53 2678.3)"/><rect width="566.469" height="95.585" rx="47.793" transform="matrix(.01273 .99992 .99996 -.00916 1163.07 2141.29)"/><path d="M1232.93 2192.83c-6.9-24.19-32.26-38.76-56.64-32.54l-487.961 124.43c-24.374 6.22-38.532 30.86-31.623 55.05 6.909 24.18 32.269 38.75 56.643 32.54l487.961-124.44c24.38-6.21 38.53-30.86 31.62-55.04z"/><rect width="710.479" height="95.561" rx="47.781" transform="matrix(.0602 .99819 .99865 -.05192 917.248 2424.8)"/><rect width="735.243" height="91.071" rx="45.536" transform="matrix(-.97057 .24084 .2679 .96345 956.557 2433.33)"/><rect width="1505.78" height="114.644" rx="57.322" transform="matrix(-.64219 .76655 .7981 .60253 1480.8 1780.19)"/><rect width="1018.55" height="116.281" rx="58.141" transform="matrix(.289 .95733 .96552 -.26032 1688.57 1651.01)"/><rect width="1019.41" height="116.192" rx="58.096" transform="matrix(.31475 .94917 .95877 -.2842 2012.52 2082.5)"/><path d="M506.035 1125.73a248.278 248.278 0 0028.235 23.77l1969.6 1422.15 197.7 130.39-157.26-152.44a246.366 246.366 0 00-27.4-22.96L546.83 1104.15 367.443 990.098l138.592 135.632z"/></g></g></g><defs><clipPath id="clip0_1_75"><path fill="#fff" d="M0 0h9192v3241H0z"/></clipPath><clipPath id="clip1_1_75"><path fill="#fff" transform="translate(-34 361)" d="M0 0h3539v2880H0z"/></clipPath><clipPath id="clip2_1_75"><path fill="#fff" transform="rotate(36.151 1357.827 2269.734)" d="M0 0h3173.19v1785.88H0z"/></clipPath><clipPath id="clip3_1_75"><path fill="#fff" transform="scale(1 -1) rotate(-36.151 -3588.226 -269.293)" d="M0 0h3046.75v1493.78H0z"/></clipPath></defs></svg>